<svg xmlns="http://www.w3.org/2000/svg" width="408" height="112" viewBox="0 0 408 112"><g transform="translate(-50 -43)"><rect width="408" height="112" rx="56" transform="translate(50 43)" fill="#f80"/><path d="M13.411,35.683V58.121a5.31,5.31,0,0,1-5.329,5.367c-2.965,0-5.832-2.4-5.832-5.367V35.683c0-2.926,2.868-5.329,5.832-5.329A5.35,5.35,0,0,1,13.411,35.683ZM15.5,66.1a5.723,5.723,0,0,0,5.735,5.735h3.856l.058,11.839c0,7.15,10.7,7.092,10.7,0V71.84h7.208V83.679c0,7.111,10.754,7.131,10.754,0V71.84h3.914a5.714,5.714,0,0,0,5.7-5.735V31.343H15.5V66.1ZM63.557,29.463H15.29c0-8.293,4.96-15.5,12.323-19.26l-3.7-6.84a.746.746,0,1,1,1.3-.736l3.759,6.9a26.179,26.179,0,0,1,20.985,0l3.74-6.879a.747.747,0,1,1,1.3.736l-3.7,6.821C58.6,13.962,63.557,21.17,63.557,29.463ZM30.482,18.709a2.034,2.034,0,0,0-2.035-2.035,2.035,2.035,0,0,0,0,4.069A2.034,2.034,0,0,0,30.482,18.709Zm21.973,0a2.006,2.006,0,1,0-1.976,2.035A2.023,2.023,0,0,0,52.455,18.709ZM70.823,30.355a5.313,5.313,0,0,0-5.329,5.329V58.121a5.346,5.346,0,0,0,5.329,5.367c2.984,0,5.832-2.4,5.832-5.367V35.683C76.656,32.7,73.788,30.355,70.823,30.355Z" transform="translate(78.75 53.755)" fill="#fff"/><text transform="translate(181 89)" fill="#fff" font-size="31" font-family="SegoeUI-Bold, Segoe UI" font-weight="700"><tspan x="0" y="0">Download</tspan></text><text transform="translate(181 127)" fill="#fff" font-size="33" font-family="SegoeUI-Bold, Segoe UI" font-weight="700"><tspan x="0" y="0">Android App</tspan></text></g></svg>